<svg xmlns="http://www.w3.org/2000/svg" xmlns:xlink="http://www.w3.org/1999/xlink" width="1080" zoomAndPan="magnify" viewBox="0 0 810 809.999993" height="1080" preserveAspectRatio="xMidYMid meet" version="1.0"><defs><g/></defs><g fill="#ffffff" fill-opacity="1"><g transform="translate(68.118928, 477.903308)"><g><path d="M 88.6875 -137.53125 L 88.6875 -110.03125 L 41.34375 -110.03125 L 41.34375 -82.6875 L 86.6875 -82.6875 L 86.6875 -55.171875 L 41.34375 -55.171875 L 41.34375 -27.5 L 88.6875 -27.5 L 88.6875 0 L 10 0 L 10 -137.53125 Z M 88.6875 -137.53125 "/></g></g></g><g fill="#ffffff" fill-opacity="1"><g transform="translate(164.800356, 477.903308)"><g><path d="M 60.6875 -140.03125 C 68.125 -140.03125 75.398438 -138.945312 82.515625 -136.78125 C 89.628906 -134.613281 94.910156 -132.472656 98.359375 -130.359375 L 103.359375 -127.03125 L 90.6875 -102.015625 C 89.6875 -102.679688 88.296875 -103.539062 86.515625 -104.59375 C 84.742188 -105.65625 81.410156 -107.078125 76.515625 -108.859375 C 71.628906 -110.640625 67.070312 -111.53125 62.84375 -111.53125 C 57.625 -111.53125 53.597656 -110.414062 50.765625 -108.1875 C 47.929688 -105.96875 46.515625 -102.96875 46.515625 -99.1875 C 46.515625 -97.300781 47.179688 -95.550781 48.515625 -93.9375 C 49.847656 -92.320312 52.125 -90.597656 55.34375 -88.765625 C 58.570312 -86.929688 61.40625 -85.457031 63.84375 -84.34375 C 66.289062 -83.238281 70.070312 -81.570312 75.1875 -79.34375 C 84.070312 -75.570312 91.65625 -70.429688 97.9375 -63.921875 C 104.21875 -57.421875 107.359375 -50.0625 107.359375 -41.84375 C 107.359375 -33.945312 105.941406 -27.054688 103.109375 -21.171875 C 100.273438 -15.285156 96.382812 -10.671875 91.4375 -7.328125 C 86.488281 -3.992188 81.015625 -1.523438 75.015625 0.078125 C 69.015625 1.691406 62.515625 2.5 55.515625 2.5 C 49.515625 2.5 43.625 1.882812 37.84375 0.65625 C 32.0625 -0.5625 27.222656 -2.085938 23.328125 -3.921875 C 19.441406 -5.753906 15.941406 -7.554688 12.828125 -9.328125 C 9.722656 -11.109375 7.445312 -12.613281 6 -13.84375 L 3.828125 -15.671875 L 19.5 -42.015625 C 20.832031 -40.898438 22.664062 -39.476562 25 -37.75 C 27.332031 -36.03125 31.472656 -33.722656 37.421875 -30.828125 C 43.367188 -27.941406 48.617188 -26.5 53.171875 -26.5 C 66.398438 -26.5 73.015625 -31.003906 73.015625 -40.015625 C 73.015625 -41.898438 72.539062 -43.644531 71.59375 -45.25 C 70.65625 -46.863281 68.988281 -48.476562 66.59375 -50.09375 C 64.207031 -51.707031 62.097656 -52.984375 60.265625 -53.921875 C 58.429688 -54.867188 55.429688 -56.316406 51.265625 -58.265625 C 47.097656 -60.210938 44.015625 -61.6875 42.015625 -62.6875 C 33.671875 -66.789062 27.222656 -71.925781 22.671875 -78.09375 C 18.117188 -84.269531 15.84375 -90.910156 15.84375 -98.015625 C 15.84375 -110.359375 20.394531 -120.445312 29.5 -128.28125 C 38.613281 -136.113281 49.007812 -140.03125 60.6875 -140.03125 Z M 60.6875 -140.03125 "/></g></g></g><g fill="#ffffff" fill-opacity="1"><g transform="translate(276.817465, 477.903308)"><g><path d="M 1.328125 -110.03125 L 1.328125 -137.53125 L 98.015625 -137.53125 L 98.015625 -110.03125 L 65.34375 -110.03125 L 65.34375 0 L 34 0 L 34 -110.03125 Z M 1.328125 -110.03125 "/></g></g></g><g fill="#ffffff" fill-opacity="1"><g transform="translate(376.165971, 477.903308)"><g><path d="M 115.6875 -137.53125 L 115.6875 -48.84375 C 115.6875 -31.945312 111.128906 -19.164062 102.015625 -10.5 C 92.910156 -1.832031 79.578125 2.5 62.015625 2.5 C 44.453125 2.5 31.113281 -1.832031 22 -10.5 C 12.882812 -19.164062 8.328125 -31.945312 8.328125 -48.84375 L 8.328125 -137.53125 L 39.671875 -137.53125 L 39.671875 -58.015625 C 39.671875 -46.898438 41.421875 -39.175781 44.921875 -34.84375 C 48.421875 -30.507812 54.113281 -28.34375 62 -28.34375 C 69.894531 -28.34375 75.59375 -30.507812 79.09375 -34.84375 C 82.601562 -39.175781 84.359375 -46.898438 84.359375 -58.015625 L 84.359375 -137.53125 Z M 115.6875 -137.53125 "/></g></g></g><g fill="#ffffff" fill-opacity="1"><g transform="translate(500.184901, 477.903308)"><g><path d="M 79.84375 -137.53125 L 135.359375 0 L 101.6875 0 L 91.515625 -27.5 L 39.171875 -27.5 L 29 0 L -4.671875 0 L 50.84375 -137.53125 Z M 80.84375 -55.015625 L 65.515625 -95.015625 L 65.1875 -95.015625 L 49.84375 -55.015625 Z M 80.84375 -55.015625 "/></g></g></g><g fill="#ffffff" fill-opacity="1"><g transform="translate(630.871523, 477.903308)"><g><path d="M 10 -137.53125 L 60.1875 -137.53125 C 74.1875 -137.53125 85.519531 -133.914062 94.1875 -126.6875 C 102.851562 -119.46875 107.1875 -108.96875 107.1875 -95.1875 C 107.1875 -81.40625 102.796875 -70.597656 94.015625 -62.765625 C 85.234375 -54.929688 73.957031 -51.015625 60.1875 -51.015625 L 41.34375 -51.015625 L 41.34375 0 L 10 0 Z M 41.34375 -76.015625 L 50.171875 -76.015625 C 57.179688 -76.015625 62.9375 -77.429688 67.4375 -80.265625 C 71.9375 -83.097656 74.1875 -87.738281 74.1875 -94.1875 C 74.1875 -100.738281 71.9375 -105.429688 67.4375 -108.265625 C 62.9375 -111.109375 57.179688 -112.53125 50.171875 -112.53125 L 41.34375 -112.53125 Z M 41.34375 -76.015625 "/></g></g></g><g fill="#ffffff" fill-opacity="1"><g transform="translate(121.615925, 524.197757)"><g><path d="M 3.234375 0 L 3.234375 -27.140625 L 23.828125 -27.140625 L 23.828125 -24.140625 L 6.921875 -24.140625 L 6.921875 -15.4375 L 22.671875 -15.4375 L 22.671875 -12.46875 L 6.921875 -12.46875 L 6.921875 -3 L 24.625 -3 L 24.625 0 Z M 3.234375 0 "/></g></g><g transform="translate(147.9359, 524.197757)"><g><path d="M 18.296875 -5.765625 C 18.296875 -3.796875 17.550781 -2.273438 16.0625 -1.203125 C 14.582031 -0.140625 12.507812 0.390625 9.84375 0.390625 C 7.25 0.390625 5.25 -0.0351562 3.84375 -0.890625 C 2.4375 -1.742188 1.519531 -3.078125 1.09375 -4.890625 L 4.15625 -5.484375 C 4.457031 -4.367188 5.066406 -3.550781 5.984375 -3.03125 C 6.910156 -2.507812 8.195312 -2.25 9.84375 -2.25 C 11.601562 -2.25 12.890625 -2.519531 13.703125 -3.0625 C 14.523438 -3.601562 14.9375 -4.410156 14.9375 -5.484375 C 14.9375 -6.304688 14.648438 -6.972656 14.078125 -7.484375 C 13.515625 -8.003906 12.601562 -8.429688 11.34375 -8.765625 L 8.859375 -9.421875 C 6.867188 -9.929688 5.453125 -10.429688 4.609375 -10.921875 C 3.773438 -11.421875 3.117188 -12.023438 2.640625 -12.734375 C 2.160156 -13.441406 1.921875 -14.304688 1.921875 -15.328125 C 1.921875 -17.234375 2.597656 -18.679688 3.953125 -19.671875 C 5.304688 -20.671875 7.28125 -21.171875 9.875 -21.171875 C 12.175781 -21.171875 14.003906 -20.765625 15.359375 -19.953125 C 16.710938 -19.148438 17.570312 -17.851562 17.9375 -16.0625 L 14.8125 -15.6875 C 14.625 -16.601562 14.109375 -17.304688 13.265625 -17.796875 C 12.421875 -18.296875 11.289062 -18.546875 9.875 -18.546875 C 8.3125 -18.546875 7.15625 -18.304688 6.40625 -17.828125 C 5.664062 -17.359375 5.296875 -16.644531 5.296875 -15.6875 C 5.296875 -15.09375 5.445312 -14.601562 5.75 -14.21875 C 6.0625 -13.832031 6.519531 -13.503906 7.125 -13.234375 C 7.726562 -12.960938 9 -12.59375 10.9375 -12.125 C 12.78125 -11.65625 14.101562 -11.222656 14.90625 -10.828125 C 15.71875 -10.441406 16.359375 -10.007812 16.828125 -9.53125 C 17.296875 -9.0625 17.65625 -8.515625 17.90625 -7.890625 C 18.164062 -7.265625 18.296875 -6.554688 18.296875 -5.765625 Z M 18.296875 -5.765625 "/></g></g><g transform="translate(167.666248, 524.197757)"><g><path d="M 10.671875 -0.15625 C 9.523438 0.15625 8.359375 0.3125 7.171875 0.3125 C 4.390625 0.3125 3 -1.257812 3 -4.40625 L 3 -18.3125 L 0.59375 -18.3125 L 0.59375 -20.84375 L 3.140625 -20.84375 L 4.15625 -25.5 L 6.46875 -25.5 L 6.46875 -20.84375 L 10.328125 -20.84375 L 10.328125 -18.3125 L 6.46875 -18.3125 L 6.46875 -5.15625 C 6.46875 -4.15625 6.628906 -3.453125 6.953125 -3.046875 C 7.285156 -2.648438 7.859375 -2.453125 8.671875 -2.453125 C 9.128906 -2.453125 9.796875 -2.539062 10.671875 -2.71875 Z M 10.671875 -0.15625 "/></g></g><g transform="translate(178.629693, 524.197757)"><g><path d="M 6.046875 -20.84375 L 6.046875 -7.625 C 6.046875 -6.25 6.179688 -5.179688 6.453125 -4.421875 C 6.722656 -3.671875 7.148438 -3.128906 7.734375 -2.796875 C 8.328125 -2.460938 9.195312 -2.296875 10.34375 -2.296875 C 12.007812 -2.296875 13.320312 -2.863281 14.28125 -4 C 15.25 -5.144531 15.734375 -6.734375 15.734375 -8.765625 L 15.734375 -20.84375 L 19.203125 -20.84375 L 19.203125 -4.453125 C 19.203125 -2.023438 19.242188 -0.539062 19.328125 0 L 16.046875 0 C 16.035156 -0.0625 16.019531 -0.234375 16 -0.515625 C 15.988281 -0.796875 15.972656 -1.117188 15.953125 -1.484375 C 15.941406 -1.859375 15.921875 -2.550781 15.890625 -3.5625 L 15.828125 -3.5625 C 15.035156 -2.125 14.113281 -1.101562 13.0625 -0.5 C 12.019531 0.09375 10.722656 0.390625 9.171875 0.390625 C 6.878906 0.390625 5.203125 -0.175781 4.140625 -1.3125 C 3.085938 -2.457031 2.5625 -4.335938 2.5625 -6.953125 L 2.5625 -20.84375 Z M 6.046875 -20.84375 "/></g></g><g transform="translate(200.575851, 524.197757)"><g><path d="M 15.8125 -3.359375 C 15.175781 -2.015625 14.328125 -1.050781 13.265625 -0.46875 C 12.203125 0.101562 10.890625 0.390625 9.328125 0.390625 C 6.691406 0.390625 4.753906 -0.492188 3.515625 -2.265625 C 2.273438 -4.046875 1.65625 -6.734375 1.65625 -10.328125 C 1.65625 -17.597656 4.210938 -21.234375 9.328125 -21.234375 C 10.898438 -21.234375 12.210938 -20.941406 13.265625 -20.359375 C 14.328125 -19.785156 15.175781 -18.867188 15.8125 -17.609375 L 15.859375 -17.609375 L 15.8125 -19.9375 L 15.8125 -28.59375 L 19.28125 -28.59375 L 19.28125 -4.296875 C 19.28125 -2.128906 19.320312 -0.695312 19.40625 0 L 16.078125 0 C 16.046875 -0.207031 16.003906 -0.679688 15.953125 -1.421875 C 15.910156 -2.171875 15.890625 -2.816406 15.890625 -3.359375 Z M 5.296875 -10.4375 C 5.296875 -7.519531 5.679688 -5.429688 6.453125 -4.171875 C 7.222656 -2.921875 8.472656 -2.296875 10.203125 -2.296875 C 12.171875 -2.296875 13.597656 -2.972656 14.484375 -4.328125 C 15.367188 -5.691406 15.8125 -7.804688 15.8125 -10.671875 C 15.8125 -13.429688 15.367188 -15.453125 14.484375 -16.734375 C 13.597656 -18.023438 12.1875 -18.671875 10.25 -18.671875 C 8.5 -18.671875 7.234375 -18.023438 6.453125 -16.734375 C 5.679688 -15.441406 5.296875 -13.34375 5.296875 -10.4375 Z M 5.296875 -10.4375 "/></g></g><g transform="translate(222.522008, 524.197757)"><g><path d="M 2.640625 -25.28125 L 2.640625 -28.59375 L 6.109375 -28.59375 L 6.109375 -25.28125 Z M 2.640625 0 L 2.640625 -20.84375 L 6.109375 -20.84375 L 6.109375 0 Z M 2.640625 0 "/></g></g><g transform="translate(231.288911, 524.197757)"><g><path d="M 7.96875 0.390625 C 5.875 0.390625 4.300781 -0.160156 3.25 -1.265625 C 2.195312 -2.367188 1.671875 -3.882812 1.671875 -5.8125 C 1.671875 -7.96875 2.378906 -9.625 3.796875 -10.78125 C 5.222656 -11.9375 7.515625 -12.554688 10.671875 -12.640625 L 15.359375 -12.71875 L 15.359375 -13.84375 C 15.359375 -15.539062 15 -16.753906 14.28125 -17.484375 C 13.5625 -18.222656 12.429688 -18.59375 10.890625 -18.59375 C 9.328125 -18.59375 8.191406 -18.328125 7.484375 -17.796875 C 6.785156 -17.273438 6.363281 -16.4375 6.21875 -15.28125 L 2.59375 -15.609375 C 3.1875 -19.359375 5.976562 -21.234375 10.96875 -21.234375 C 13.582031 -21.234375 15.550781 -20.628906 16.875 -19.421875 C 18.195312 -18.222656 18.859375 -16.488281 18.859375 -14.21875 L 18.859375 -5.234375 C 18.859375 -4.210938 18.992188 -3.441406 19.265625 -2.921875 C 19.535156 -2.398438 20.050781 -2.140625 20.8125 -2.140625 C 21.144531 -2.140625 21.519531 -2.179688 21.9375 -2.265625 L 21.9375 -0.109375 C 21.0625 0.0859375 20.171875 0.1875 19.265625 0.1875 C 17.984375 0.1875 17.046875 -0.144531 16.453125 -0.8125 C 15.867188 -1.488281 15.539062 -2.546875 15.46875 -3.984375 L 15.359375 -3.984375 C 14.472656 -2.390625 13.441406 -1.257812 12.265625 -0.59375 C 11.085938 0.0625 9.65625 0.390625 7.96875 0.390625 Z M 8.765625 -2.21875 C 10.035156 -2.21875 11.164062 -2.503906 12.15625 -3.078125 C 13.144531 -3.660156 13.925781 -4.453125 14.5 -5.453125 C 15.070312 -6.460938 15.359375 -7.503906 15.359375 -8.578125 L 15.359375 -10.28125 L 11.5625 -10.203125 C 9.925781 -10.179688 8.6875 -10.015625 7.84375 -9.703125 C 7.007812 -9.398438 6.363281 -8.925781 5.90625 -8.28125 C 5.457031 -7.644531 5.234375 -6.804688 5.234375 -5.765625 C 5.234375 -4.628906 5.535156 -3.753906 6.140625 -3.140625 C 6.753906 -2.523438 7.628906 -2.21875 8.765625 -2.21875 Z M 8.765625 -2.21875 "/></g></g><g transform="translate(253.235069, 524.197757)"><g/></g><g transform="translate(264.198514, 524.197757)"><g><path d="M 1.75 -8.9375 L 1.75 -12.015625 L 11.390625 -12.015625 L 11.390625 -8.9375 Z M 1.75 -8.9375 "/></g></g><g transform="translate(277.339234, 524.197757)"><g/></g><g transform="translate(288.302679, 524.197757)"><g><path d="M 22.484375 0 L 19.375 -7.9375 L 7.015625 -7.9375 L 3.890625 0 L 0.078125 0 L 11.15625 -27.140625 L 15.328125 -27.140625 L 26.234375 0 Z M 13.203125 -24.375 L 13.015625 -23.828125 C 12.703125 -22.765625 12.226562 -21.398438 11.59375 -19.734375 L 8.125 -10.8125 L 18.28125 -10.8125 L 14.796875 -19.765625 C 14.429688 -20.648438 14.070312 -21.648438 13.71875 -22.765625 Z M 13.203125 -24.375 "/></g></g><g transform="translate(314.622654, 524.197757)"><g><path d="M 20.28125 -10.515625 C 20.28125 -3.242188 17.726562 0.390625 12.625 0.390625 C 9.40625 0.390625 7.242188 -0.816406 6.140625 -3.234375 L 6.046875 -3.234375 C 6.097656 -3.128906 6.125 -2.039062 6.125 0.03125 L 6.125 8.1875 L 2.65625 8.1875 L 2.65625 -16.59375 C 2.65625 -18.726562 2.617188 -20.144531 2.546875 -20.84375 L 5.890625 -20.84375 C 5.910156 -20.789062 5.929688 -20.609375 5.953125 -20.296875 C 5.972656 -19.984375 6 -19.5 6.03125 -18.84375 C 6.070312 -18.1875 6.09375 -17.734375 6.09375 -17.484375 L 6.171875 -17.484375 C 6.785156 -18.773438 7.597656 -19.71875 8.609375 -20.3125 C 9.628906 -20.90625 10.96875 -21.203125 12.625 -21.203125 C 15.1875 -21.203125 17.101562 -20.34375 18.375 -18.625 C 19.644531 -16.90625 20.28125 -14.203125 20.28125 -10.515625 Z M 16.640625 -10.4375 C 16.640625 -13.34375 16.25 -15.414062 15.46875 -16.65625 C 14.6875 -17.90625 13.441406 -18.53125 11.734375 -18.53125 C 10.359375 -18.53125 9.28125 -18.238281 8.5 -17.65625 C 7.726562 -17.082031 7.140625 -16.179688 6.734375 -14.953125 C 6.328125 -13.734375 6.125 -12.140625 6.125 -10.171875 C 6.125 -7.429688 6.5625 -5.410156 7.4375 -4.109375 C 8.3125 -2.816406 9.726562 -2.171875 11.6875 -2.171875 C 13.414062 -2.171875 14.671875 -2.800781 15.453125 -4.0625 C 16.242188 -5.332031 16.640625 -7.457031 16.640625 -10.4375 Z M 16.640625 -10.4375 "/></g></g><g transform="translate(336.568812, 524.197757)"><g><path d="M 6.046875 -20.84375 L 6.046875 -7.625 C 6.046875 -6.25 6.179688 -5.179688 6.453125 -4.421875 C 6.722656 -3.671875 7.148438 -3.128906 7.734375 -2.796875 C 8.328125 -2.460938 9.195312 -2.296875 10.34375 -2.296875 C 12.007812 -2.296875 13.320312 -2.863281 14.28125 -4 C 15.25 -5.144531 15.734375 -6.734375 15.734375 -8.765625 L 15.734375 -20.84375 L 19.203125 -20.84375 L 19.203125 -4.453125 C 19.203125 -2.023438 19.242188 -0.539062 19.328125 0 L 16.046875 0 C 16.035156 -0.0625 16.019531 -0.234375 16 -0.515625 C 15.988281 -0.796875 15.972656 -1.117188 15.953125 -1.484375 C 15.941406 -1.859375 15.921875 -2.550781 15.890625 -3.5625 L 15.828125 -3.5625 C 15.035156 -2.125 14.113281 -1.101562 13.0625 -0.5 C 12.019531 0.09375 10.722656 0.390625 9.171875 0.390625 C 6.878906 0.390625 5.203125 -0.175781 4.140625 -1.3125 C 3.085938 -2.457031 2.5625 -4.335938 2.5625 -6.953125 L 2.5625 -20.84375 Z M 6.046875 -20.84375 "/></g></g><g transform="translate(358.51497, 524.197757)"><g><path d="M 15.890625 0 L 15.890625 -13.21875 C 15.890625 -14.59375 15.753906 -15.65625 15.484375 -16.40625 C 15.210938 -17.164062 14.78125 -17.710938 14.1875 -18.046875 C 13.601562 -18.378906 12.738281 -18.546875 11.59375 -18.546875 C 9.925781 -18.546875 8.609375 -17.972656 7.640625 -16.828125 C 6.679688 -15.691406 6.203125 -14.109375 6.203125 -12.078125 L 6.203125 0 L 2.734375 0 L 2.734375 -16.390625 C 2.734375 -18.816406 2.695312 -20.300781 2.625 -20.84375 L 5.890625 -20.84375 C 5.910156 -20.78125 5.925781 -20.609375 5.9375 -20.328125 C 5.945312 -20.046875 5.960938 -19.71875 5.984375 -19.34375 C 6.003906 -18.976562 6.023438 -18.289062 6.046875 -17.28125 L 6.109375 -17.28125 C 6.898438 -18.71875 7.816406 -19.734375 8.859375 -20.328125 C 9.910156 -20.929688 11.210938 -21.234375 12.765625 -21.234375 C 15.054688 -21.234375 16.726562 -20.660156 17.78125 -19.515625 C 18.84375 -18.378906 19.375 -16.503906 19.375 -13.890625 L 19.375 0 Z M 15.890625 0 "/></g></g><g transform="translate(380.461128, 524.197757)"><g><path d="M 10.671875 -0.15625 C 9.523438 0.15625 8.359375 0.3125 7.171875 0.3125 C 4.390625 0.3125 3 -1.257812 3 -4.40625 L 3 -18.3125 L 0.59375 -18.3125 L 0.59375 -20.84375 L 3.140625 -20.84375 L 4.15625 -25.5 L 6.46875 -25.5 L 6.46875 -20.84375 L 10.328125 -20.84375 L 10.328125 -18.3125 L 6.46875 -18.3125 L 6.46875 -5.15625 C 6.46875 -4.15625 6.628906 -3.453125 6.953125 -3.046875 C 7.285156 -2.648438 7.859375 -2.453125 8.671875 -2.453125 C 9.128906 -2.453125 9.796875 -2.539062 10.671875 -2.71875 Z M 10.671875 -0.15625 "/></g></g><g transform="translate(391.424573, 524.197757)"><g><path d="M 7.96875 0.390625 C 5.875 0.390625 4.300781 -0.160156 3.25 -1.265625 C 2.195312 -2.367188 1.671875 -3.882812 1.671875 -5.8125 C 1.671875 -7.96875 2.378906 -9.625 3.796875 -10.78125 C 5.222656 -11.9375 7.515625 -12.554688 10.671875 -12.640625 L 15.359375 -12.71875 L 15.359375 -13.84375 C 15.359375 -15.539062 15 -16.753906 14.28125 -17.484375 C 13.5625 -18.222656 12.429688 -18.59375 10.890625 -18.59375 C 9.328125 -18.59375 8.191406 -18.328125 7.484375 -17.796875 C 6.785156 -17.273438 6.363281 -16.4375 6.21875 -15.28125 L 2.59375 -15.609375 C 3.1875 -19.359375 5.976562 -21.234375 10.96875 -21.234375 C 13.582031 -21.234375 15.550781 -20.628906 16.875 -19.421875 C 18.195312 -18.222656 18.859375 -16.488281 18.859375 -14.21875 L 18.859375 -5.234375 C 18.859375 -4.210938 18.992188 -3.441406 19.265625 -2.921875 C 19.535156 -2.398438 20.050781 -2.140625 20.8125 -2.140625 C 21.144531 -2.140625 21.519531 -2.179688 21.9375 -2.265625 L 21.9375 -0.109375 C 21.0625 0.0859375 20.171875 0.1875 19.265625 0.1875 C 17.984375 0.1875 17.046875 -0.144531 16.453125 -0.8125 C 15.867188 -1.488281 15.539062 -2.546875 15.46875 -3.984375 L 15.359375 -3.984375 C 14.472656 -2.390625 13.441406 -1.257812 12.265625 -0.59375 C 11.085938 0.0625 9.65625 0.390625 7.96875 0.390625 Z M 8.765625 -2.21875 C 10.035156 -2.21875 11.164062 -2.503906 12.15625 -3.078125 C 13.144531 -3.660156 13.925781 -4.453125 14.5 -5.453125 C 15.070312 -6.460938 15.359375 -7.503906 15.359375 -8.578125 L 15.359375 -10.28125 L 11.5625 -10.203125 C 9.925781 -10.179688 8.6875 -10.015625 7.84375 -9.703125 C 7.007812 -9.398438 6.363281 -8.925781 5.90625 -8.28125 C 5.457031 -7.644531 5.234375 -6.804688 5.234375 -5.765625 C 5.234375 -4.628906 5.535156 -3.753906 6.140625 -3.140625 C 6.753906 -2.523438 7.628906 -2.21875 8.765625 -2.21875 Z M 8.765625 -2.21875 "/></g></g><g transform="translate(413.370731, 524.197757)"><g/></g><g transform="translate(424.334176, 524.197757)"><g><path d="M 20.28125 -10.515625 C 20.28125 -3.242188 17.726562 0.390625 12.625 0.390625 C 9.40625 0.390625 7.242188 -0.816406 6.140625 -3.234375 L 6.046875 -3.234375 C 6.097656 -3.128906 6.125 -2.039062 6.125 0.03125 L 6.125 8.1875 L 2.65625 8.1875 L 2.65625 -16.59375 C 2.65625 -18.726562 2.617188 -20.144531 2.546875 -20.84375 L 5.890625 -20.84375 C 5.910156 -20.789062 5.929688 -20.609375 5.953125 -20.296875 C 5.972656 -19.984375 6 -19.5 6.03125 -18.84375 C 6.070312 -18.1875 6.09375 -17.734375 6.09375 -17.484375 L 6.171875 -17.484375 C 6.785156 -18.773438 7.597656 -19.71875 8.609375 -20.3125 C 9.628906 -20.90625 10.96875 -21.203125 12.625 -21.203125 C 15.1875 -21.203125 17.101562 -20.34375 18.375 -18.625 C 19.644531 -16.90625 20.28125 -14.203125 20.28125 -10.515625 Z M 16.640625 -10.4375 C 16.640625 -13.34375 16.25 -15.414062 15.46875 -16.65625 C 14.6875 -17.90625 13.441406 -18.53125 11.734375 -18.53125 C 10.359375 -18.53125 9.28125 -18.238281 8.5 -17.65625 C 7.726562 -17.082031 7.140625 -16.179688 6.734375 -14.953125 C 6.328125 -13.734375 6.125 -12.140625 6.125 -10.171875 C 6.125 -7.429688 6.5625 -5.410156 7.4375 -4.109375 C 8.3125 -2.816406 9.726562 -2.171875 11.6875 -2.171875 C 13.414062 -2.171875 14.671875 -2.800781 15.453125 -4.0625 C 16.242188 -5.332031 16.640625 -7.457031 16.640625 -10.4375 Z M 16.640625 -10.4375 "/></g></g><g transform="translate(446.280334, 524.197757)"><g><path d="M 7.96875 0.390625 C 5.875 0.390625 4.300781 -0.160156 3.25 -1.265625 C 2.195312 -2.367188 1.671875 -3.882812 1.671875 -5.8125 C 1.671875 -7.96875 2.378906 -9.625 3.796875 -10.78125 C 5.222656 -11.9375 7.515625 -12.554688 10.671875 -12.640625 L 15.359375 -12.71875 L 15.359375 -13.84375 C 15.359375 -15.539062 15 -16.753906 14.28125 -17.484375 C 13.5625 -18.222656 12.429688 -18.59375 10.890625 -18.59375 C 9.328125 -18.59375 8.191406 -18.328125 7.484375 -17.796875 C 6.785156 -17.273438 6.363281 -16.4375 6.21875 -15.28125 L 2.59375 -15.609375 C 3.1875 -19.359375 5.976562 -21.234375 10.96875 -21.234375 C 13.582031 -21.234375 15.550781 -20.628906 16.875 -19.421875 C 18.195312 -18.222656 18.859375 -16.488281 18.859375 -14.21875 L 18.859375 -5.234375 C 18.859375 -4.210938 18.992188 -3.441406 19.265625 -2.921875 C 19.535156 -2.398438 20.050781 -2.140625 20.8125 -2.140625 C 21.144531 -2.140625 21.519531 -2.179688 21.9375 -2.265625 L 21.9375 -0.109375 C 21.0625 0.0859375 20.171875 0.1875 19.265625 0.1875 C 17.984375 0.1875 17.046875 -0.144531 16.453125 -0.8125 C 15.867188 -1.488281 15.539062 -2.546875 15.46875 -3.984375 L 15.359375 -3.984375 C 14.472656 -2.390625 13.441406 -1.257812 12.265625 -0.59375 C 11.085938 0.0625 9.65625 0.390625 7.96875 0.390625 Z M 8.765625 -2.21875 C 10.035156 -2.21875 11.164062 -2.503906 12.15625 -3.078125 C 13.144531 -3.660156 13.925781 -4.453125 14.5 -5.453125 C 15.070312 -6.460938 15.359375 -7.503906 15.359375 -8.578125 L 15.359375 -10.28125 L 11.5625 -10.203125 C 9.925781 -10.179688 8.6875 -10.015625 7.84375 -9.703125 C 7.007812 -9.398438 6.363281 -8.925781 5.90625 -8.28125 C 5.457031 -7.644531 5.234375 -6.804688 5.234375 -5.765625 C 5.234375 -4.628906 5.535156 -3.753906 6.140625 -3.140625 C 6.753906 -2.523438 7.628906 -2.21875 8.765625 -2.21875 Z M 8.765625 -2.21875 "/></g></g><g transform="translate(468.226492, 524.197757)"><g><path d="M 2.734375 0 L 2.734375 -15.984375 C 2.734375 -17.453125 2.695312 -19.070312 2.625 -20.84375 L 5.890625 -20.84375 C 5.992188 -18.476562 6.046875 -17.0625 6.046875 -16.59375 L 6.125 -16.59375 C 6.675781 -18.375 7.3125 -19.59375 8.03125 -20.25 C 8.75 -20.90625 9.765625 -21.234375 11.078125 -21.234375 C 11.535156 -21.234375 12.003906 -21.164062 12.484375 -21.03125 L 12.484375 -17.859375 C 12.023438 -17.984375 11.410156 -18.046875 10.640625 -18.046875 C 9.191406 -18.046875 8.085938 -17.425781 7.328125 -16.1875 C 6.578125 -14.945312 6.203125 -13.171875 6.203125 -10.859375 L 6.203125 0 Z M 2.734375 0 "/></g></g><g transform="translate(481.367211, 524.197757)"><g><path d="M 7.96875 0.390625 C 5.875 0.390625 4.300781 -0.160156 3.25 -1.265625 C 2.195312 -2.367188 1.671875 -3.882812 1.671875 -5.8125 C 1.671875 -7.96875 2.378906 -9.625 3.796875 -10.78125 C 5.222656 -11.9375 7.515625 -12.554688 10.671875 -12.640625 L 15.359375 -12.71875 L 15.359375 -13.84375 C 15.359375 -15.539062 15 -16.753906 14.28125 -17.484375 C 13.5625 -18.222656 12.429688 -18.59375 10.890625 -18.59375 C 9.328125 -18.59375 8.191406 -18.328125 7.484375 -17.796875 C 6.785156 -17.273438 6.363281 -16.4375 6.21875 -15.28125 L 2.59375 -15.609375 C 3.1875 -19.359375 5.976562 -21.234375 10.96875 -21.234375 C 13.582031 -21.234375 15.550781 -20.628906 16.875 -19.421875 C 18.195312 -18.222656 18.859375 -16.488281 18.859375 -14.21875 L 18.859375 -5.234375 C 18.859375 -4.210938 18.992188 -3.441406 19.265625 -2.921875 C 19.535156 -2.398438 20.050781 -2.140625 20.8125 -2.140625 C 21.144531 -2.140625 21.519531 -2.179688 21.9375 -2.265625 L 21.9375 -0.109375 C 21.0625 0.0859375 20.171875 0.1875 19.265625 0.1875 C 17.984375 0.1875 17.046875 -0.144531 16.453125 -0.8125 C 15.867188 -1.488281 15.539062 -2.546875 15.46875 -3.984375 L 15.359375 -3.984375 C 14.472656 -2.390625 13.441406 -1.257812 12.265625 -0.59375 C 11.085938 0.0625 9.65625 0.390625 7.96875 0.390625 Z M 8.765625 -2.21875 C 10.035156 -2.21875 11.164062 -2.503906 12.15625 -3.078125 C 13.144531 -3.660156 13.925781 -4.453125 14.5 -5.453125 C 15.070312 -6.460938 15.359375 -7.503906 15.359375 -8.578125 L 15.359375 -10.28125 L 11.5625 -10.203125 C 9.925781 -10.179688 8.6875 -10.015625 7.84375 -9.703125 C 7.007812 -9.398438 6.363281 -8.925781 5.90625 -8.28125 C 5.457031 -7.644531 5.234375 -6.804688 5.234375 -5.765625 C 5.234375 -4.628906 5.535156 -3.753906 6.140625 -3.140625 C 6.753906 -2.523438 7.628906 -2.21875 8.765625 -2.21875 Z M 8.765625 -2.21875 "/></g></g><g transform="translate(503.313369, 524.197757)"><g/></g><g transform="translate(514.276814, 524.197757)"><g><path d="M 2.734375 0 L 2.734375 -15.984375 C 2.734375 -17.453125 2.695312 -19.070312 2.625 -20.84375 L 5.890625 -20.84375 C 5.992188 -18.476562 6.046875 -17.0625 6.046875 -16.59375 L 6.125 -16.59375 C 6.675781 -18.375 7.3125 -19.59375 8.03125 -20.25 C 8.75 -20.90625 9.765625 -21.234375 11.078125 -21.234375 C 11.535156 -21.234375 12.003906 -21.164062 12.484375 -21.03125 L 12.484375 -17.859375 C 12.023438 -17.984375 11.410156 -18.046875 10.640625 -18.046875 C 9.191406 -18.046875 8.085938 -17.425781 7.328125 -16.1875 C 6.578125 -14.945312 6.203125 -13.171875 6.203125 -10.859375 L 6.203125 0 Z M 2.734375 0 "/></g></g><g transform="translate(527.417534, 524.197757)"><g><path d="M 5.3125 -9.6875 C 5.3125 -7.300781 5.804688 -5.457031 6.796875 -4.15625 C 7.785156 -2.863281 9.234375 -2.21875 11.140625 -2.21875 C 12.640625 -2.21875 13.84375 -2.519531 14.75 -3.125 C 15.65625 -3.726562 16.269531 -4.488281 16.59375 -5.40625 L 19.625 -4.546875 C 18.382812 -1.253906 15.554688 0.390625 11.140625 0.390625 C 8.054688 0.390625 5.707031 -0.523438 4.09375 -2.359375 C 2.476562 -4.203125 1.671875 -6.9375 1.671875 -10.5625 C 1.671875 -14 2.476562 -16.632812 4.09375 -18.46875 C 5.707031 -20.3125 8.007812 -21.234375 11 -21.234375 C 17.125 -21.234375 20.1875 -17.539062 20.1875 -10.15625 L 20.1875 -9.6875 Z M 16.609375 -12.34375 C 16.410156 -14.539062 15.847656 -16.144531 14.921875 -17.15625 C 14.003906 -18.164062 12.675781 -18.671875 10.9375 -18.671875 C 9.257812 -18.671875 7.925781 -18.109375 6.9375 -16.984375 C 5.957031 -15.859375 5.429688 -14.3125 5.359375 -12.34375 Z M 16.609375 -12.34375 "/></g></g><g transform="translate(549.363692, 524.197757)"><g><path d="M 5.296875 -10.515625 C 5.296875 -7.742188 5.734375 -5.6875 6.609375 -4.34375 C 7.484375 -3.007812 8.800781 -2.34375 10.5625 -2.34375 C 11.789062 -2.34375 12.816406 -2.675781 13.640625 -3.34375 C 14.472656 -4.019531 14.988281 -5.050781 15.1875 -6.4375 L 18.6875 -6.203125 C 18.414062 -4.203125 17.5625 -2.601562 16.125 -1.40625 C 14.6875 -0.207031 12.863281 0.390625 10.65625 0.390625 C 7.738281 0.390625 5.507812 -0.53125 3.96875 -2.375 C 2.4375 -4.21875 1.671875 -6.90625 1.671875 -10.4375 C 1.671875 -13.945312 2.441406 -16.625 3.984375 -18.46875 C 5.523438 -20.3125 7.734375 -21.234375 10.609375 -21.234375 C 12.742188 -21.234375 14.515625 -20.679688 15.921875 -19.578125 C 17.328125 -18.472656 18.210938 -16.945312 18.578125 -15 L 15 -14.734375 C 14.820312 -15.890625 14.367188 -16.804688 13.640625 -17.484375 C 12.910156 -18.171875 11.867188 -18.515625 10.515625 -18.515625 C 8.679688 -18.515625 7.351562 -17.90625 6.53125 -16.6875 C 5.707031 -15.46875 5.296875 -13.410156 5.296875 -10.515625 Z M 5.296875 -10.515625 "/></g></g><g transform="translate(569.094039, 524.197757)"><g><path d="M 20.28125 -10.4375 C 20.28125 -6.789062 19.476562 -4.070312 17.875 -2.28125 C 16.269531 -0.5 13.941406 0.390625 10.890625 0.390625 C 7.835938 0.390625 5.535156 -0.535156 3.984375 -2.390625 C 2.429688 -4.253906 1.65625 -6.9375 1.65625 -10.4375 C 1.65625 -17.632812 4.769531 -21.234375 11 -21.234375 C 14.1875 -21.234375 16.53125 -20.351562 18.03125 -18.59375 C 19.53125 -16.84375 20.28125 -14.125 20.28125 -10.4375 Z M 16.640625 -10.4375 C 16.640625 -13.3125 16.210938 -15.398438 15.359375 -16.703125 C 14.503906 -18.015625 13.070312 -18.671875 11.0625 -18.671875 C 9.03125 -18.671875 7.5625 -18.003906 6.65625 -16.671875 C 5.75 -15.335938 5.296875 -13.257812 5.296875 -10.4375 C 5.296875 -7.6875 5.738281 -5.617188 6.625 -4.234375 C 7.519531 -2.859375 8.925781 -2.171875 10.84375 -2.171875 C 12.925781 -2.171875 14.410156 -2.835938 15.296875 -4.171875 C 16.191406 -5.515625 16.640625 -7.601562 16.640625 -10.4375 Z M 16.640625 -10.4375 "/></g></g><g transform="translate(591.040197, 524.197757)"><g><path d="M 2.734375 0 L 2.734375 -15.984375 C 2.734375 -17.453125 2.695312 -19.070312 2.625 -20.84375 L 5.890625 -20.84375 C 5.992188 -18.476562 6.046875 -17.0625 6.046875 -16.59375 L 6.125 -16.59375 C 6.675781 -18.375 7.3125 -19.59375 8.03125 -20.25 C 8.75 -20.90625 9.765625 -21.234375 11.078125 -21.234375 C 11.535156 -21.234375 12.003906 -21.164062 12.484375 -21.03125 L 12.484375 -17.859375 C 12.023438 -17.984375 11.410156 -18.046875 10.640625 -18.046875 C 9.191406 -18.046875 8.085938 -17.425781 7.328125 -16.1875 C 6.578125 -14.945312 6.203125 -13.171875 6.203125 -10.859375 L 6.203125 0 Z M 2.734375 0 "/></g></g><g transform="translate(604.180917, 524.197757)"><g><path d="M 15.8125 -3.359375 C 15.175781 -2.015625 14.328125 -1.050781 13.265625 -0.46875 C 12.203125 0.101562 10.890625 0.390625 9.328125 0.390625 C 6.691406 0.390625 4.753906 -0.492188 3.515625 -2.265625 C 2.273438 -4.046875 1.65625 -6.734375 1.65625 -10.328125 C 1.65625 -17.597656 4.210938 -21.234375 9.328125 -21.234375 C 10.898438 -21.234375 12.210938 -20.941406 13.265625 -20.359375 C 14.328125 -19.785156 15.175781 -18.867188 15.8125 -17.609375 L 15.859375 -17.609375 L 15.8125 -19.9375 L 15.8125 -28.59375 L 19.28125 -28.59375 L 19.28125 -4.296875 C 19.28125 -2.128906 19.320312 -0.695312 19.40625 0 L 16.078125 0 C 16.046875 -0.207031 16.003906 -0.679688 15.953125 -1.421875 C 15.910156 -2.171875 15.890625 -2.816406 15.890625 -3.359375 Z M 5.296875 -10.4375 C 5.296875 -7.519531 5.679688 -5.429688 6.453125 -4.171875 C 7.222656 -2.921875 8.472656 -2.296875 10.203125 -2.296875 C 12.171875 -2.296875 13.597656 -2.972656 14.484375 -4.328125 C 15.367188 -5.691406 15.8125 -7.804688 15.8125 -10.671875 C 15.8125 -13.429688 15.367188 -15.453125 14.484375 -16.734375 C 13.597656 -18.023438 12.1875 -18.671875 10.25 -18.671875 C 8.5 -18.671875 7.234375 -18.023438 6.453125 -16.734375 C 5.679688 -15.441406 5.296875 -13.34375 5.296875 -10.4375 Z M 5.296875 -10.4375 "/></g></g><g transform="translate(626.127075, 524.197757)"><g><path d="M 7.96875 0.390625 C 5.875 0.390625 4.300781 -0.160156 3.25 -1.265625 C 2.195312 -2.367188 1.671875 -3.882812 1.671875 -5.8125 C 1.671875 -7.96875 2.378906 -9.625 3.796875 -10.78125 C 5.222656 -11.9375 7.515625 -12.554688 10.671875 -12.640625 L 15.359375 -12.71875 L 15.359375 -13.84375 C 15.359375 -15.539062 15 -16.753906 14.28125 -17.484375 C 13.5625 -18.222656 12.429688 -18.59375 10.890625 -18.59375 C 9.328125 -18.59375 8.191406 -18.328125 7.484375 -17.796875 C 6.785156 -17.273438 6.363281 -16.4375 6.21875 -15.28125 L 2.59375 -15.609375 C 3.1875 -19.359375 5.976562 -21.234375 10.96875 -21.234375 C 13.582031 -21.234375 15.550781 -20.628906 16.875 -19.421875 C 18.195312 -18.222656 18.859375 -16.488281 18.859375 -14.21875 L 18.859375 -5.234375 C 18.859375 -4.210938 18.992188 -3.441406 19.265625 -2.921875 C 19.535156 -2.398438 20.050781 -2.140625 20.8125 -2.140625 C 21.144531 -2.140625 21.519531 -2.179688 21.9375 -2.265625 L 21.9375 -0.109375 C 21.0625 0.0859375 20.171875 0.1875 19.265625 0.1875 C 17.984375 0.1875 17.046875 -0.144531 16.453125 -0.8125 C 15.867188 -1.488281 15.539062 -2.546875 15.46875 -3.984375 L 15.359375 -3.984375 C 14.472656 -2.390625 13.441406 -1.257812 12.265625 -0.59375 C 11.085938 0.0625 9.65625 0.390625 7.96875 0.390625 Z M 8.765625 -2.21875 C 10.035156 -2.21875 11.164062 -2.503906 12.15625 -3.078125 C 13.144531 -3.660156 13.925781 -4.453125 14.5 -5.453125 C 15.070312 -6.460938 15.359375 -7.503906 15.359375 -8.578125 L 15.359375 -10.28125 L 11.5625 -10.203125 C 9.925781 -10.179688 8.6875 -10.015625 7.84375 -9.703125 C 7.007812 -9.398438 6.363281 -8.925781 5.90625 -8.28125 C 5.457031 -7.644531 5.234375 -6.804688 5.234375 -5.765625 C 5.234375 -4.628906 5.535156 -3.753906 6.140625 -3.140625 C 6.753906 -2.523438 7.628906 -2.21875 8.765625 -2.21875 Z M 8.765625 -2.21875 "/></g></g><g transform="translate(648.073233, 524.197757)"><g><path d="M 2.734375 0 L 2.734375 -15.984375 C 2.734375 -17.453125 2.695312 -19.070312 2.625 -20.84375 L 5.890625 -20.84375 C 5.992188 -18.476562 6.046875 -17.0625 6.046875 -16.59375 L 6.125 -16.59375 C 6.675781 -18.375 7.3125 -19.59375 8.03125 -20.25 C 8.75 -20.90625 9.765625 -21.234375 11.078125 -21.234375 C 11.535156 -21.234375 12.003906 -21.164062 12.484375 -21.03125 L 12.484375 -17.859375 C 12.023438 -17.984375 11.410156 -18.046875 10.640625 -18.046875 C 9.191406 -18.046875 8.085938 -17.425781 7.328125 -16.1875 C 6.578125 -14.945312 6.203125 -13.171875 6.203125 -10.859375 L 6.203125 0 Z M 2.734375 0 "/></g></g></g></svg>